<svg xmlns="http://www.w3.org/2000/svg" viewBox="0 0 1200 900" role="img" aria-labelledby="title desc">
<title id="title">Care workflow illustration</title>
<desc id="desc">Team members coordinating patient care around a digital workflow board.</desc>
<defs>
<linearGradient id="bg" x1="0%" y1="0%" x2="100%" y2="100%">
<stop offset="0%" stop-color="#eff6ff"/>
<stop offset="100%" stop-color="#ecfeff"/>
</linearGradient>
</defs>
<rect width="1200" height="900" fill="url(#bg)"/>
<rect x="158" y="120" width="884" height="660" rx="44" fill="#ffffff"/>
<rect x="222" y="194" width="756" height="156" rx="28" fill="#f8fafc"/>
<rect x="258" y="238" width="148" height="24" rx="12" fill="#0f172a"/>
<rect x="258" y="286" width="428" height="18" rx="9" fill="#cbd5e1"/>
<rect x="258" y="318" width="360" height="18" rx="9" fill="#cbd5e1"/>
<rect x="746" y="232" width="180" height="82" rx="24" fill="#0f766e"/>
<path d="M806 248h24v18h18v24h-18v18h-24v-18h-18v-24h18z" fill="#ffffff"/>
<rect x="222" y="390" width="244" height="318" rx="30" fill="#ecfeff"/>
<rect x="490" y="390" width="244" height="318" rx="30" fill="#eff6ff"/>
<rect x="758" y="390" width="220" height="318" rx="30" fill="#f8fafc"/>
<circle cx="344" cy="488" r="44" fill="#14b8a6"/>
<circle cx="612" cy="488" r="44" fill="#2563eb"/>
<circle cx="868" cy="488" r="44" fill="#0f766e"/>
<rect x="286" y="560" width="116" height="18" rx="9" fill="#94a3b8"/>
<rect x="554" y="560" width="116" height="18" rx="9" fill="#94a3b8"/>
<rect x="810" y="560" width="116" height="18" rx="9" fill="#94a3b8"/>
<rect x="274" y="604" width="140" height="62" rx="22" fill="#ffffff"/>
<rect x="542" y="604" width="140" height="62" rx="22" fill="#ffffff"/>
<rect x="798" y="604" width="140" height="62" rx="22" fill="#ffffff"/>
<path d="M436 490h120" stroke="#14b8a6" stroke-width="18" stroke-linecap="round"/>
<path d="M704 490h108" stroke="#2563eb" stroke-width="18" stroke-linecap="round"/>
<circle cx="428" cy="490" r="20" fill="#14b8a6"/>
<circle cx="564" cy="490" r="20" fill="#14b8a6"/>
<circle cx="696" cy="490" r="20" fill="#2563eb"/>
<circle cx="820" cy="490" r="20" fill="#2563eb"/>
</svg>
