<svg xmlns="http://www.w3.org/2000/svg" viewBox="0 0 1200 900" role="img" aria-labelledby="title desc">
<title id="title">Healthcare dashboard illustration</title>
<desc id="desc">Clinician reviewing a digital patient record in a bright hospital setting.</desc>
<defs>
<linearGradient id="bg" x1="0%" y1="0%" x2="100%" y2="100%">
<stop offset="0%" stop-color="#dff8f4"/>
<stop offset="100%" stop-color="#dbeafe"/>
</linearGradient>
<linearGradient id="panel" x1="0%" y1="0%" x2="100%" y2="100%">
<stop offset="0%" stop-color="#0f766e"/>
<stop offset="100%" stop-color="#2563eb"/>
</linearGradient>
</defs>
<rect width="1200" height="900" fill="url(#bg)"/>
<circle cx="972" cy="164" r="122" fill="#ffffff" opacity=".55"/>
<circle cx="204" cy="724" r="148" fill="#ffffff" opacity=".45"/>
<rect x="118" y="132" width="964" height="636" rx="42" fill="#ffffff"/>
<rect x="160" y="184" width="368" height="532" rx="30" fill="#ecfeff"/>
<rect x="560" y="184" width="480" height="220" rx="30" fill="#f8fafc"/>
<rect x="560" y="438" width="480" height="278" rx="30" fill="#f8fafc"/>
<rect x="194" y="228" width="168" height="168" rx="28" fill="#99f6e4"/>
<circle cx="278" cy="284" r="42" fill="#0f766e"/>
<path d="M212 382c18-42 54-68 96-68s78 26 96 68v14H212z" fill="#0f766e"/>
<rect x="194" y="444" width="300" height="18" rx="9" fill="#cbd5e1"/>
<rect x="194" y="486" width="250" height="18" rx="9" fill="#cbd5e1"/>
<rect x="194" y="528" width="274" height="18" rx="9" fill="#cbd5e1"/>
<rect x="194" y="584" width="266" height="92" rx="24" fill="url(#panel)"/>
<path d="M308 610h38v22h22v38h-22v22h-38v-22h-22v-38h22z" fill="#ffffff"/>
<rect x="600" y="224" width="176" height="22" rx="11" fill="#0f172a"/>
<rect x="600" y="266" width="388" height="16" rx="8" fill="#cbd5e1"/>
<rect x="600" y="300" width="330" height="16" rx="8" fill="#cbd5e1"/>
<rect x="600" y="338" width="212" height="40" rx="20" fill="#14b8a6" opacity=".18"/>
<rect x="600" y="486" width="176" height="22" rx="11" fill="#0f172a"/>
<rect x="600" y="532" width="392" height="20" rx="10" fill="#bfdbfe"/>
<rect x="600" y="572" width="320" height="20" rx="10" fill="#99f6e4"/>
<rect x="600" y="612" width="278" height="20" rx="10" fill="#cbd5e1"/>
<rect x="940" y="520" width="64" height="152" rx="24" fill="#0f766e"/>
<rect x="852" y="560" width="64" height="112" rx="24" fill="#14b8a6"/>
<rect x="764" y="596" width="64" height="76" rx="24" fill="#93c5fd"/>
</svg>
